<svg width="32" height="31" viewBox="0 0 32 31" fill="none" xmlns="http://www.w3.org/2000/svg">
<g filter="url(#filter0_d)">
<mask id="path-1-inside-1" fill="white">
<path fill-rule="evenodd" clip-rule="evenodd" d="M26.6065 4.21133C29.4195 6.9078 30.9999 10.565 30.9999 14.3784L31 14.3784L16.0001 28L1.00014 14.3784H1C1 10.565 2.58035 6.9078 5.39338 4.21133C8.20641 1.51486 12.0217 0 15.9999 0C19.9782 0 23.7934 1.51486 26.6065 4.21133Z"/>
</mask>
<path fill-rule="evenodd" clip-rule="evenodd" d="M26.6065 4.21133C29.4195 6.9078 30.9999 10.565 30.9999 14.3784L31 14.3784L16.0001 28L1.00014 14.3784H1C1 10.565 2.58035 6.9078 5.39338 4.21133C8.20641 1.51486 12.0217 0 15.9999 0C19.9782 0 23.7934 1.51486 26.6065 4.21133Z" fill="#FEC22D"/>
<path d="M30.9999 14.3784H29.9999V15.4054L31.0265 15.378L30.9999 14.3784ZM26.6065 4.21133L27.2985 3.48942L26.6065 4.21133ZM31 14.3784L31.6723 15.1187L33.6674 13.3069L30.9733 13.3787L31 14.3784ZM16.0001 28L15.3278 28.7403L16.0001 29.3508L16.6723 28.7403L16.0001 28ZM1.00014 14.3784L1.67242 13.6381L1.38644 13.3784H1.00014V14.3784ZM1 14.3784H0V15.3784H1V14.3784ZM5.39338 4.21133L6.08537 4.93323L5.39338 4.21133ZM31.9999 14.3784C31.9999 10.2858 30.3034 6.36985 27.2985 3.48942L25.9145 4.93324C28.5356 7.44575 29.9999 10.8442 29.9999 14.3784H31.9999ZM31.0265 15.378L31.0267 15.378L30.9733 13.3787L30.9732 13.3787L31.0265 15.378ZM30.3277 13.6381L15.3278 27.2597L16.6723 28.7403L31.6723 15.1187L30.3277 13.6381ZM16.6723 27.2597L1.67242 13.6381L0.327867 15.1187L15.3278 28.7403L16.6723 27.2597ZM1 15.3784H1.00014V13.3784H1V15.3784ZM4.70139 3.48942C1.69645 6.36985 0 10.2858 0 14.3784H2C2 10.8442 3.46425 7.44575 6.08537 4.93323L4.70139 3.48942ZM15.9999 -1C11.7698 -1 7.70489 0.610377 4.70139 3.48942L6.08537 4.93323C8.70793 2.41934 12.2736 1 15.9999 1V-1ZM27.2985 3.48942C24.295 0.610378 20.23 -1 15.9999 -1V1C19.7263 1 23.2919 2.41934 25.9145 4.93324L27.2985 3.48942Z" fill="url(#paint0_linear)" mask="url(#path-1-inside-1)"/>
</g>
<defs>
<filter id="filter0_d" x="0" y="0" width="32" height="31" filterUnits="userSpaceOnUse" color-interpolation-filters="sRGB">
<feFlood flood-opacity="0" result="BackgroundImageFix"/>
<feColorMatrix in="SourceAlpha" type="matrix" values="0 0 0 0 0 0 0 0 0 0 0 0 0 0 0 0 0 0 127 0"/>
<feOffset dy="2"/>
<feGaussianBlur stdDeviation="0.5"/>
<feColorMatrix type="matrix" values="0 0 0 0 0 0 0 0 0 0 0 0 0 0 0 0 0 0 0.3 0"/>
<feBlend mode="normal" in2="BackgroundImageFix" result="effect1_dropShadow"/>
<feBlend mode="normal" in="SourceGraphic" in2="effect1_dropShadow" result="shape"/>
</filter>
<linearGradient id="paint0_linear" x1="15.973" y1="27.4964" x2="15.973" y2="-5.96211e-08" gradientUnits="userSpaceOnUse">
<stop stop-color="#FFDD2F"/>
<stop offset="0.510417" stop-color="#FEC22D"/>
<stop offset="1" stop-color="#D5B200"/>
</linearGradient>
</defs>
</svg>
