<svg width="80" height="80" viewBox="0 0 80 80" fill="none" xmlns="http://www.w3.org/2000/svg">
<circle cx="40" cy="41" r="33.5" fill="#FFF3D4" stroke="#FEE39F"/>
<g filter="url(#filter0_d)">
<circle cx="40" cy="41" r="31" fill="white"/>
</g>
<mask id="mask0" mask-type="alpha" maskUnits="userSpaceOnUse" x="9" y="10" width="62" height="62">
<circle cx="40" cy="41" r="31" fill="#97C21E"/>
</mask>
<g mask="url(#mask0)">
<path d="M69.9436 49.0237C68.5171 54.3477 65.6968 59.1951 61.7735 63.0664L39.9999 41.0003L69.9436 49.0237Z" fill="#66CA29"/>
<path d="M61.9202 62.9206C58.0228 66.818 53.1567 69.6059 47.8233 70.9969L39.9999 41.0003L61.9202 62.9206Z" fill="#1CCAD1"/>
<path d="M48.0233 70.944C42.6993 72.3706 37.0912 72.3519 31.7769 70.8898L39.9999 41.0003L48.0233 70.944Z" fill="#17BEC7"/>
<path d="M31.9765 70.944C26.6525 69.5174 21.8051 66.6972 17.9338 62.7738L39.9999 41.0003L31.9765 70.944Z" fill="#246EE7"/>
<path d="M18.0796 62.9206C14.1822 59.0232 11.3943 54.1571 10.0033 48.8237L39.9999 41.0003L18.0796 62.9206Z" fill="#1C64D3"/>
<path d="M10.0562 49.0237C8.62963 43.6997 8.64835 38.0916 10.1104 32.7773L39.9999 41.0003L10.0562 49.0237Z" fill="#D12BD3"/>
<path d="M10.0562 32.9769C11.4828 27.6529 14.303 22.8055 18.2264 18.9342L39.9999 41.0003L10.0562 32.9769Z" fill="#C022BD"/>
<path d="M18.0796 19.08C21.977 15.1826 26.8431 12.3947 32.1765 11.0037L39.9999 41.0003L18.0796 19.08Z" fill="#EC4716"/>
<path d="M31.9765 11.0566C37.3005 9.63004 42.9086 9.64875 48.2229 11.1108L39.9999 41.0003L31.9765 11.0566Z" fill="#DE3D0D"/>
<path d="M48.0233 11.0566C53.3473 12.4832 58.1947 15.3034 62.066 19.2267L39.9999 41.0003L48.0233 11.0566Z" fill="#F5C908"/>
<path d="M61.9202 19.08C65.8177 22.9774 68.6055 27.8435 69.9965 33.1769L39.9999 41.0003L61.9202 19.08Z" fill="#ECB209"/>
<path d="M69.9436 32.9769C71.3702 38.3009 71.3515 43.909 69.8894 49.2233L39.9999 41.0003L69.9436 32.9769Z" fill="#83DB31"/>
</g>
<g opacity="0.4" filter="url(#filter1_f)">
<circle cx="40" cy="40" r="10" fill="#28313E"/>
</g>
<ellipse cx="39.9998" cy="40.0001" rx="2.39437" ry="2.39437" fill="#28313E"/>
<circle cx="39.5" cy="8.5" r="0.5" fill="url(#paint0_linear)"/>
<circle cx="39.5" cy="73.5" r="0.5" transform="rotate(180 39.5 73.5)" fill="url(#paint1_linear)"/>
<circle cx="7.5" cy="40.5" r="0.5" transform="rotate(-90 7.5 40.5)" fill="url(#paint2_linear)"/>
<circle cx="72.5" cy="40.5" r="0.5" transform="rotate(90 72.5 40.5)" fill="url(#paint3_linear)"/>
<circle cx="11.8544" cy="24.2501" r="0.5" transform="rotate(-60 11.8544 24.2501)" fill="url(#paint4_linear)"/>
<circle cx="68.1456" cy="56.7499" r="0.5" transform="rotate(120 68.1456 56.7499)" fill="url(#paint5_linear)"/>
<circle cx="23.3168" cy="13.1044" r="0.5" transform="rotate(-30 23.3168 13.1044)" fill="url(#paint6_linear)"/>
<circle cx="55.817" cy="69.3958" r="0.5" transform="rotate(150 55.817 69.3958)" fill="url(#paint7_linear)"/>
<circle cx="11.6044" cy="56.817" r="0.5" transform="rotate(-120 11.6044 56.817)" fill="url(#paint8_linear)"/>
<circle cx="67.8956" cy="24.3168" r="0.5" transform="rotate(60 67.8956 24.3168)" fill="url(#paint9_linear)"/>
<circle cx="23.5001" cy="68.7127" r="0.5" transform="rotate(-150 23.5001 68.7127)" fill="url(#paint10_linear)"/>
<circle cx="55.9999" cy="12.4213" r="0.5" transform="rotate(30 55.9999 12.4213)" fill="url(#paint11_linear)"/>
<g filter="url(#filter2_d)">
<path fill-rule="evenodd" clip-rule="evenodd" d="M42.8284 5.2032C43.5785 5.9736 43.9999 7.01848 43.9999 8.10799H40L36 8.10799C36 7.01848 36.4214 5.9736 37.1716 5.2032C37.9217 4.4328 38.9391 4 40 4C41.0608 4 42.0782 4.4328 42.8284 5.2032ZM36.0001 8.10822L40 12L44 8.10822L36.0001 8.10822Z" fill="#FEC22D"/>
</g>
<defs>
<filter id="filter0_d" x="9" y="10" width="62" height="63" filterUnits="userSpaceOnUse" color-interpolation-filters="sRGB">
<feFlood flood-opacity="0" result="BackgroundImageFix"/>
<feColorMatrix in="SourceAlpha" type="matrix" values="0 0 0 0 0 0 0 0 0 0 0 0 0 0 0 0 0 0 127 0"/>
<feOffset dy="1"/>
<feColorMatrix type="matrix" values="0 0 0 0 0 0 0 0 0 0 0 0 0 0 0 0 0 0 0.3 0"/>
<feBlend mode="normal" in2="BackgroundImageFix" result="effect1_dropShadow"/>
<feBlend mode="normal" in="SourceGraphic" in2="effect1_dropShadow" result="shape"/>
</filter>
<filter id="filter1_f" x="0" y="0" width="80" height="80" filterUnits="userSpaceOnUse" color-interpolation-filters="sRGB">
<feFlood flood-opacity="0" result="BackgroundImageFix"/>
<feBlend mode="normal" in="SourceGraphic" in2="BackgroundImageFix" result="shape"/>
<feGaussianBlur stdDeviation="15" result="effect1_foregroundBlur"/>
</filter>
<filter id="filter2_d" x="35" y="4" width="10" height="11" filterUnits="userSpaceOnUse" color-interpolation-filters="sRGB">
<feFlood flood-opacity="0" result="BackgroundImageFix"/>
<feColorMatrix in="SourceAlpha" type="matrix" values="0 0 0 0 0 0 0 0 0 0 0 0 0 0 0 0 0 0 127 0"/>
<feOffset dy="2"/>
<feGaussianBlur stdDeviation="0.5"/>
<feColorMatrix type="matrix" values="0 0 0 0 0 0 0 0 0 0 0 0 0 0 0 0 0 0 0.3 0"/>
<feBlend mode="normal" in2="BackgroundImageFix" result="effect1_dropShadow"/>
<feBlend mode="normal" in="SourceGraphic" in2="effect1_dropShadow" result="shape"/>
</filter>
<linearGradient id="paint0_linear" x1="39.5" y1="8" x2="39.5" y2="9" gradientUnits="userSpaceOnUse">
<stop offset="0.385417" stop-color="#FFBC08"/>
<stop offset="1" stop-color="#353228"/>
</linearGradient>
<linearGradient id="paint1_linear" x1="39.5" y1="73" x2="39.5" y2="74" gradientUnits="userSpaceOnUse">
<stop offset="0.385417" stop-color="#FFBC08"/>
<stop offset="1" stop-color="#353228"/>
</linearGradient>
<linearGradient id="paint2_linear" x1="7.5" y1="40" x2="7.5" y2="41" gradientUnits="userSpaceOnUse">
<stop offset="0.385417" stop-color="#FFBC08"/>
<stop offset="1" stop-color="#353228"/>
</linearGradient>
<linearGradient id="paint3_linear" x1="72.5" y1="40" x2="72.5" y2="41" gradientUnits="userSpaceOnUse">
<stop offset="0.385417" stop-color="#FFBC08"/>
<stop offset="1" stop-color="#353228"/>
</linearGradient>
<linearGradient id="paint4_linear" x1="11.8544" y1="23.7501" x2="11.8544" y2="24.7501" gradientUnits="userSpaceOnUse">
<stop offset="0.385417" stop-color="#FFBC08"/>
<stop offset="1" stop-color="#353228"/>
</linearGradient>
<linearGradient id="paint5_linear" x1="68.1456" y1="56.2499" x2="68.1456" y2="57.2499" gradientUnits="userSpaceOnUse">
<stop offset="0.385417" stop-color="#FFBC08"/>
<stop offset="1" stop-color="#353228"/>
</linearGradient>
<linearGradient id="paint6_linear" x1="23.3168" y1="12.6044" x2="23.3168" y2="13.6044" gradientUnits="userSpaceOnUse">
<stop offset="0.385417" stop-color="#FFBC08"/>
<stop offset="1" stop-color="#353228"/>
</linearGradient>
<linearGradient id="paint7_linear" x1="55.817" y1="68.8958" x2="55.817" y2="69.8958" gradientUnits="userSpaceOnUse">
<stop offset="0.385417" stop-color="#FFBC08"/>
<stop offset="1" stop-color="#353228"/>
</linearGradient>
<linearGradient id="paint8_linear" x1="11.6044" y1="56.317" x2="11.6044" y2="57.317" gradientUnits="userSpaceOnUse">
<stop offset="0.385417" stop-color="#FFBC08"/>
<stop offset="1" stop-color="#353228"/>
</linearGradient>
<linearGradient id="paint9_linear" x1="67.8956" y1="23.8168" x2="67.8956" y2="24.8168" gradientUnits="userSpaceOnUse">
<stop offset="0.385417" stop-color="#FFBC08"/>
<stop offset="1" stop-color="#353228"/>
</linearGradient>
<linearGradient id="paint10_linear" x1="23.5001" y1="68.2127" x2="23.5001" y2="69.2127" gradientUnits="userSpaceOnUse">
<stop offset="0.385417" stop-color="#FFBC08"/>
<stop offset="1" stop-color="#353228"/>
</linearGradient>
<linearGradient id="paint11_linear" x1="55.9999" y1="11.9213" x2="55.9999" y2="12.9213" gradientUnits="userSpaceOnUse">
<stop offset="0.385417" stop-color="#FFBC08"/>
<stop offset="1" stop-color="#353228"/>
</linearGradient>
</defs>
</svg>
