<svg width="16" height="14" viewBox="0 0 16 14" fill="none" xmlns="http://www.w3.org/2000/svg">
<path d="M8.6715 10.121C8.476 10.3165 8.476 10.633 8.6715 10.828C8.86703 11.0235 9.1835 11.0235 9.37851 10.828L12.828 7.37801C12.932 7.27399 12.9765 7.1355 12.9695 6.99948C12.9765 6.86298 12.932 6.72499 12.828 6.62099L9.37851 3.1715C9.1835 2.976 8.86651 2.976 8.6715 3.1715C8.476 3.36701 8.476 3.6835 8.6715 3.87848L11.293 6.49997H0.5C0.224 6.5 0 6.724 0 7C0 7.276 0.224 7.5 0.5 7.5H11.293L8.6715 10.121ZM14 0H4C2.8955 0 2 0.895503 2 2V4H3V2C3 1.448 3.4475 1 4 1H14C14.5525 1 15 1.448 15 2V12C15 12.552 14.5525 13 14 13H4C3.4475 13 3 12.5525 3 12V10H2V12C2 13.1045 2.8955 14 4 14H14C15.1045 14 16 13.1045 16 12V2C16 0.895503 15.1045 0 14 0Z" fill="#404040"/>
</svg>
